<svg width="34" height="34" viewBox="0 0 34 34" fill="none" xmlns="http://www.w3.org/2000/svg">
<g id="rocket-02">
<path id="Icon" d="M17.0013 21.249L12.7513 16.999M17.0013 21.249C18.9802 20.4964 20.8786 19.5472 22.668 18.4157M17.0013 21.249V28.3324C17.0013 28.3324 21.2938 27.5532 22.668 25.499C24.198 23.204 22.668 18.4157 22.668 18.4157M12.7513 16.999C13.5052 15.0432 14.4544 13.1685 15.5846 11.4032C17.2353 8.76395 19.5338 6.59087 22.2614 5.09068C24.989 3.59049 28.0551 2.81307 31.168 2.83238C31.168 6.68572 30.063 13.4574 22.668 18.4157M12.7513 16.999H5.66797C5.66797 16.999 6.44714 12.7065 8.5013 11.3324C10.7963 9.80238 15.5846 11.3324 15.5846 11.3324M6.3763 23.374C4.2513 25.159 3.54297 30.4574 3.54297 30.4574C3.54297 30.4574 8.8413 29.749 10.6263 27.624C11.6321 26.434 11.618 24.6065 10.4988 23.5015C9.94815 22.976 9.2228 22.6723 8.46196 22.6488C7.70111 22.6252 6.95838 22.8835 6.3763 23.374Z" stroke="#101010" stroke-width="1.5" stroke-linecap="round" stroke-linejoin="round"/>
</g>
</svg>
