<svg width="89" height="81" viewBox="0 0 89 81" fill="none" xmlns="http://www.w3.org/2000/svg">
<g id="Group 1321314439">
<path id="Vector" d="M31.9965 71.5985C31.404 71.163 30.8673 70.8392 30.2972 70.6382C29.727 70.4372 29.1345 70.3255 28.5085 70.3032C27.2675 70.2473 25.9148 70.4818 24.618 70.7945C23.3212 71.1183 22.0914 71.498 21.1635 71.8106C20.2468 72.1121 19.6543 72.3578 19.6543 72.3578C19.6543 72.3578 20.2356 72.6928 21.1859 73.0947C22.125 73.4967 23.433 73.9545 24.8528 74.2002C26.2614 74.4459 27.8042 74.4794 29.1569 74.0885C30.4872 73.7089 31.6275 72.8937 32.0076 71.5985H31.9965Z" fill="#FFA300"/>
<path id="Vector_2" d="M28.0375 65.8583C28.5406 66.9861 29.2785 68.0916 30.2399 68.8174C30.7206 69.1747 31.2572 69.4427 31.8274 69.5543C32.3975 69.666 33.0124 69.6325 33.6161 69.3868C33.6496 68.0357 33.2807 66.9638 32.6994 66.0258C32.1181 65.099 31.2908 64.295 30.4411 63.5916C29.5915 62.8993 28.7195 62.3186 28.0599 61.9055C27.4003 61.4923 26.9531 61.2578 26.9531 61.2578C26.9531 61.2578 26.9531 61.403 26.9867 61.6598C27.009 61.9055 27.0537 62.2739 27.1208 62.7094C27.2662 63.5692 27.5456 64.7417 28.0487 65.8695L28.0375 65.8583Z" fill="#FFA300"/>
<path id="Vector_3" d="M18.7145 68.8853C20.0113 68.8183 21.1628 68.327 21.9677 67.2439C21.3193 66.0938 20.3467 65.4684 19.1728 65.1111C17.999 64.7538 16.6351 64.6533 15.2936 64.6086C13.952 64.5751 12.6217 64.6086 11.6267 64.6086C10.6093 64.6198 9.96094 64.6421 9.96094 64.6421C9.96094 64.6421 10.0839 64.7761 10.3187 64.9995C10.5535 65.2116 10.8888 65.5243 11.3137 65.8704C12.1521 66.5627 13.3483 67.3779 14.6675 67.9697C15.9867 68.5727 17.4177 68.9411 18.7145 68.8853Z" fill="#FFA300"/>
<path id="Vector_4" d="M21.1853 63.7587C21.9232 64.6855 22.9517 65.2997 24.2262 65.2438C24.7516 63.9932 24.6622 62.8096 24.3044 61.7153C23.9467 60.6322 23.3318 59.6272 22.6946 58.7562C22.0573 57.8853 21.4201 57.1483 20.9394 56.6123C20.7046 56.3443 20.5034 56.1322 20.3692 55.987C20.2351 55.8418 20.1568 55.7637 20.1568 55.7637C20.1568 55.7637 20.1121 55.8977 20.045 56.1322C19.9779 56.3778 19.9109 56.7128 19.8438 57.1371C19.7096 57.9858 19.6426 59.147 19.8214 60.3642C20.0003 61.5701 20.4363 62.8207 21.1742 63.7587H21.1853Z" fill="#FFA300"/>
<path id="Vector_5" d="M5.29776 54.4695C4.38104 54.1792 3.77734 54.0117 3.77734 54.0117C3.77734 54.0117 3.83324 54.168 3.94504 54.4249C4.06801 54.6817 4.25806 55.039 4.49283 55.4522C4.7276 55.8765 5.01827 56.3678 5.35365 56.8814C5.52135 57.1383 5.70022 57.4063 5.89027 57.6631L6.0356 57.8641L6.22565 58.1097C6.34863 58.2772 6.48278 58.4336 6.61694 58.601C7.69017 59.8852 9.02053 60.8566 10.3285 61.2698C11.6365 61.6829 12.8998 61.5489 13.9842 60.745C13.6824 59.4497 12.9557 58.5675 11.9719 57.7971C11.7371 57.6073 11.4577 57.4286 11.1894 57.2388C10.921 57.0601 10.6304 56.8814 10.3397 56.7028C10.049 56.5241 9.7472 56.3455 9.44535 56.178C9.15468 56.0216 8.86402 55.8765 8.57335 55.7425C7.3995 55.1953 6.20329 54.771 5.28658 54.4807L5.29776 54.4695Z" fill="#FFA300"/>
<path id="Vector_6" d="M14.3106 56.7684C14.6572 57.8851 15.4621 58.8007 16.6919 59.091C17.5415 58.0414 17.821 56.9024 17.8881 55.8193C17.944 54.7362 17.8098 53.72 17.6868 52.8602C17.6421 52.4918 17.4968 51.8776 17.3626 51.3975C17.2285 50.9062 17.072 50.4595 16.9378 50.0798C16.8037 49.7002 16.6695 49.3987 16.5801 49.1865C16.5018 48.9744 16.4459 48.8516 16.4459 48.8516C16.4459 48.8516 16.3565 48.9744 16.2223 49.1865C16.077 49.4099 15.8981 49.7225 15.6969 50.1134C15.2944 50.8838 14.8025 51.9781 14.4672 53.1841C14.3777 53.4856 14.2995 53.787 14.2436 54.1109C14.1877 54.4012 14.1429 54.6915 14.1206 55.0042C14.0982 55.3057 14.1206 55.6071 14.1429 55.9086C14.1765 56.2101 14.2436 56.4893 14.3218 56.7796L14.3106 56.7684Z" fill="#FFA300"/>
<path id="Vector_7" d="M3.8909 49.9246C4.10331 50.1814 4.34926 50.4159 4.60639 50.6281C4.85234 50.8402 5.12065 51.0412 5.38895 51.2087C6.46219 51.901 7.64721 52.1802 8.94403 51.8117C9.05583 51.164 8.99993 50.5722 8.83224 50.0251C8.7428 49.7571 8.63101 49.4891 8.48568 49.2434C8.34034 48.9866 8.17265 48.7521 8.00496 48.5065C7.31183 47.5462 6.2386 46.7087 5.15418 45.9606C4.10331 45.2124 2.99654 44.5648 2.1469 44.0958C1.28608 43.638 0.738281 43.3477 0.738281 43.3477C0.738281 43.3477 0.76064 43.504 0.827717 43.7831C0.905974 44.0623 1.01777 44.4531 1.18546 44.9221C1.50967 45.8601 1.95685 47.1218 2.69469 48.272C3.05244 48.8526 3.4549 49.4221 3.8909 49.9246Z" fill="#FFA300"/>
<path id="Vector_8" d="M10.8882 49.4219C11.1453 49.9244 11.5142 50.3822 12.0285 50.7395C13.2023 50.0695 13.8731 49.0646 14.2308 47.9703C14.3203 47.7023 14.3874 47.4231 14.4433 47.1328C14.4656 46.9876 14.488 46.8536 14.5103 46.7085C14.5327 46.5633 14.5551 46.4182 14.5774 46.273C14.6557 45.6923 14.6668 45.1229 14.6557 44.5646C14.5886 43.4591 14.5103 42.4206 14.3762 41.6613C14.3091 41.2817 14.242 40.969 14.1973 40.7569C14.1638 40.5447 14.1414 40.4219 14.1414 40.4219C14.1414 40.4219 14.0296 40.5224 13.8507 40.701C13.6607 40.8797 13.4259 41.1477 13.1576 41.4827C12.6098 42.1526 11.9279 43.1129 11.3689 44.2296C10.8435 45.335 10.4969 46.5856 10.5081 47.7693C10.5081 48.0708 10.5528 48.3499 10.6199 48.6291C10.6869 48.9082 10.7876 49.1762 10.9105 49.4219H10.8882Z" fill="#FFA300"/>
<path id="Vector_9" d="M1.63188 39.2826C1.79957 39.5841 1.96726 39.8744 2.16849 40.1312C2.36973 40.3992 2.59332 40.6449 2.82808 40.857C3.75598 41.7503 4.86275 42.264 6.20429 42.1412C6.43906 41.527 6.50614 40.9464 6.43906 40.3769C6.40553 40.0977 6.33845 39.8186 6.24901 39.5394C6.15958 39.2603 6.07014 38.9923 5.94717 38.7243C5.70122 38.1771 5.35465 37.6523 4.96337 37.1387C4.76214 36.8819 4.54973 36.625 4.35968 36.3794C4.15845 36.1226 3.93486 35.8769 3.72245 35.6424C2.85044 34.6709 1.87783 33.7888 1.19588 33.13C0.491569 32.46 -0.00032881 32.0469 -0.00032881 32.0469C-0.00032881 32.0469 -0.0226878 32.7169 0.0443892 33.7218C0.0779277 34.2243 0.178543 34.8049 0.301518 35.4302C0.357415 35.7429 0.435672 36.0667 0.513928 36.3905C0.592185 36.7144 0.670441 37.0494 0.804595 37.3732C1.03936 38.032 1.31885 38.6685 1.65424 39.2714L1.63188 39.2826Z" fill="#FFA300"/>
<path id="Vector_10" d="M9.40229 41.4263C10.6879 40.9908 11.5376 40.1422 12.0965 39.1595C12.2419 38.9139 12.3537 38.6682 12.4655 38.4002C12.5884 38.1434 12.7002 37.8754 12.7897 37.6074C12.9797 37.0714 13.1139 36.5355 13.2033 36.0106C13.3039 35.4858 13.4157 34.9722 13.4604 34.5032C13.494 34.2575 13.5163 34.0342 13.5275 33.8221C13.5387 33.6099 13.5499 33.4089 13.5722 33.2191C13.6505 32.4821 13.6393 32.002 13.6393 32.002C13.6393 32.002 13.1474 32.2699 12.4319 32.7836C12.2531 32.9064 12.063 33.0516 11.8618 33.2079C11.6605 33.3642 11.4593 33.5429 11.2581 33.7216C10.8668 34.09 10.4532 34.5255 10.0731 34.9945C9.88301 35.229 9.69296 35.4747 9.51408 35.7426C9.42465 35.8655 9.33521 35.9995 9.25696 36.1335C9.1787 36.2675 9.11162 36.4015 9.04455 36.5355C8.77624 37.0826 8.57501 37.6521 8.46321 38.2327C8.40731 38.523 8.37378 38.8022 8.38495 39.0925C8.39613 39.3717 8.44085 39.6508 8.51911 39.9188C8.67562 40.466 8.94393 40.9685 9.37993 41.4151L9.40229 41.4263Z" fill="#FFA300"/>
<path id="Vector_11" d="M4.75054 25.2589C4.44869 24.6782 4.12449 24.1199 3.81146 23.6063C3.48725 23.0815 3.19659 22.6013 2.95064 22.1993C2.44756 21.3954 2.07864 20.8594 2.07864 20.8594C2.07864 20.8594 1.88859 21.4959 1.68736 22.4785C1.6091 22.981 1.54202 23.5616 1.4973 24.1981C1.47494 24.5219 1.45259 24.8457 1.44141 25.1807C1.44141 25.5157 1.46377 25.8619 1.4973 26.208C1.5532 26.9003 1.64264 27.6038 1.82151 28.2626C2.02274 28.9214 2.27987 29.5579 2.60407 30.0939C3.24131 31.1882 4.26982 31.9475 5.60018 32.1373C5.77905 31.8693 5.90203 31.5901 6.00264 31.3222C6.09208 31.043 6.19269 30.775 6.22623 30.4959C6.31567 29.9375 6.27095 29.3569 6.1368 28.7762C6.025 28.1956 5.84613 27.6038 5.589 27.012C5.34305 26.4202 5.03003 25.8172 4.73936 25.2477L4.75054 25.2589Z" fill="#FFA300"/>
<path id="Vector_12" d="M11.9838 30.3715C12.3863 29.9807 12.7217 29.534 13.0123 29.0762C13.3254 28.6184 13.6048 28.1494 13.8284 27.6692C13.9402 27.4347 14.0297 27.2003 14.1415 26.9658C14.2533 26.7424 14.3539 26.5191 14.4433 26.2958C14.6222 25.8603 14.7563 25.4583 14.8681 25.1233C15.1364 24.4422 15.2482 23.9844 15.2482 23.9844C15.2482 23.9844 14.7004 24.1184 13.8843 24.4199C13.0459 24.7213 12.0397 25.2238 11.0447 25.9385C10.7988 26.1171 10.5417 26.307 10.3181 26.5079C10.0945 26.7089 9.88208 26.9323 9.68084 27.1556C9.27838 27.6134 8.92064 28.1047 8.67469 28.6295C8.4511 29.1543 8.32812 29.7127 8.32812 30.2598C8.32812 30.539 8.35048 30.807 8.43992 31.0861C8.52936 31.3653 8.65233 31.6333 8.82002 31.9012C10.1727 31.7784 11.1342 31.1531 11.9615 30.3715H11.9838Z" fill="#FFA300"/>
<path id="Vector_13" d="M8.06183 21.7295C8.2407 21.495 8.38603 21.2494 8.49783 20.9925C8.60962 20.7357 8.68788 20.4677 8.74378 20.1886C8.79968 19.9094 8.82203 19.6191 8.85557 19.3288C8.90029 18.7481 8.85557 18.1228 8.75496 17.4863C8.65434 16.8499 8.54255 16.2246 8.38603 15.5769C8.06183 14.304 7.70408 13.1092 7.39106 12.1935C7.07803 11.2779 6.85444 10.6973 6.85444 10.6973C6.85444 10.6973 6.76501 10.8313 6.63085 11.0881C6.4967 11.3449 6.31783 11.7134 6.11659 12.16C5.69177 13.0533 5.26695 14.3263 4.98747 15.6662C4.87567 16.3474 4.80859 17.0509 4.80859 17.7208C4.80859 18.0558 4.84213 18.402 4.88685 18.7258C4.93157 19.0496 4.99864 19.3734 5.09926 19.6749C5.28931 20.2891 5.53526 20.8251 5.9489 21.294C6.35136 21.763 6.85444 22.1315 7.46931 22.3995C7.70408 22.1873 7.90532 21.964 8.06183 21.7184V21.7295Z" fill="#FFA300"/>
<path id="Vector_14" d="M18.6585 16.8827C18.7703 16.704 18.8374 16.6035 18.8374 16.6035C18.8374 16.6035 18.6921 16.6035 18.435 16.6035C18.1778 16.6035 17.8313 16.637 17.4064 16.6928C16.9816 16.7487 16.4785 16.8268 15.9419 16.9497C15.6736 17.0167 15.3941 17.0837 15.1146 17.1618C14.8463 17.2512 14.5668 17.3405 14.2874 17.4633C13.7284 17.6866 13.1582 17.9546 12.6552 18.2896C12.1633 18.6246 11.7049 19.0154 11.336 19.4621C11.1459 19.6742 11.0006 19.9199 10.8776 20.1655C10.7546 20.4112 10.654 20.668 10.5869 20.936C10.5199 21.204 10.4863 21.4832 10.4863 21.7623C10.4975 22.0526 10.5534 22.343 10.654 22.6445C11.3136 22.7561 11.9285 22.7226 12.4986 22.5998C13.0576 22.477 13.6054 22.2648 14.0861 21.9857C14.3321 21.8517 14.5557 21.6953 14.7793 21.5278C14.8911 21.4497 14.9917 21.3603 15.1035 21.271C15.2153 21.1817 15.3159 21.0923 15.4277 21.003C15.8525 20.6457 16.2214 20.2437 16.5568 19.8417C16.9145 19.4509 17.2387 19.0489 17.5071 18.6693C17.5741 18.5799 17.6412 18.4794 17.7083 18.3901C17.7754 18.3008 17.8424 18.2115 17.9095 18.1221C18.0325 17.9435 18.1443 17.7871 18.2449 17.6308C18.4461 17.3293 18.6026 17.0613 18.7144 16.8827H18.6585Z" fill="#FFA300"/>
<path id="Vector_15" d="M11.7047 13.5104C12.2749 13.2201 12.7109 12.8404 13.0351 12.3826C13.3817 11.9471 13.6164 11.4335 13.7841 10.864C14.1307 9.74739 14.1866 8.4186 14.1754 7.13448C14.1754 6.81066 14.1531 6.48684 14.1307 6.17419C14.1195 5.86153 14.0972 5.56004 14.0748 5.25855C14.0301 4.66674 13.9742 4.10843 13.9183 3.63945C13.8177 2.70148 13.7171 2.07617 13.7171 2.07617C13.7171 2.07617 13.6053 2.199 13.4264 2.41116C13.2363 2.62332 12.9792 2.92481 12.6885 3.32679C12.3979 3.71761 12.0625 4.17543 11.7495 4.71141C11.4364 5.24739 11.1122 5.81687 10.8551 6.44218C10.598 7.06749 10.3632 7.71513 10.2179 8.37394C10.0837 9.03275 10.0055 9.69156 10.039 10.3169C10.1173 11.5787 10.6203 12.7064 11.6936 13.5216L11.7047 13.5104Z" fill="#FFA300"/>
<path id="Vector_16" d="M21.0949 12.8305C21.5309 12.5178 21.9333 12.194 22.2911 11.8814C22.6488 11.5687 22.9842 11.2784 23.2413 11.0104C23.4985 10.7424 23.7332 10.5302 23.8786 10.3739C24.0239 10.2176 24.1021 10.1283 24.1021 10.1283C24.1021 10.1283 23.5432 10.0054 22.6712 9.9161C22.2352 9.87143 21.7321 9.8491 21.1843 9.86027C20.6365 9.86027 20.0328 9.90493 19.4403 9.99426C18.2329 10.1729 17.0255 10.5749 16.1088 11.2672C15.6616 11.6134 15.2815 12.0377 15.0132 12.5178C14.7673 13.0092 14.6443 13.5675 14.6667 14.1816C15.9076 14.7288 17.0814 14.6729 18.1547 14.3603C18.7025 14.2039 19.2167 13.9806 19.6974 13.7126C20.1893 13.4558 20.6589 13.1543 21.0837 12.8305H21.0949Z" fill="#FFA300"/>
<path id="Vector_17" d="M18.7046 63.5692C22.2373 66.4947 26.5526 68.4935 30.7785 70.2019C34.2441 71.5977 38.6824 73.8756 43.1989 76.0084C39.1296 77.2702 35.1273 78.3086 31.8964 78.8446C31.4716 78.9116 33.6516 81.1225 34.0541 80.9997C37.7992 79.8719 41.6002 78.5096 45.3454 77.0022C49.4371 78.8558 53.4729 80.4526 56.8044 81.0109C57.218 81.0779 58.526 78.8558 58.1012 78.7888C54.9486 78.264 51.2929 77.326 47.4807 76.1312C53.7635 73.496 59.8005 70.5146 65.0325 67.6784C70.7117 64.5853 74.9711 60.2081 77.7659 54.3794C80.3596 48.9861 82.193 43.0233 82.4613 37.027C82.8303 28.7305 80.0466 20.5903 75.7201 13.589C74.4568 11.5456 73.037 9.50219 71.4607 7.60392C71.5948 7.07911 71.6172 6.56546 71.5278 6.08531C71.4272 5.51583 71.1924 4.96869 70.857 4.47737C70.1974 3.47241 69.1354 2.65727 68.0398 2.0543C66.9442 1.45132 65.7927 1.08283 64.943 0.870672C64.5182 0.770176 64.1605 0.703178 63.9145 0.66968C63.7915 0.658513 63.6909 0.647347 63.635 0.636181C63.5791 0.636181 63.5456 0.636181 63.5456 0.636181C63.5456 0.636181 63.5568 0.658513 63.5791 0.725511C63.6127 0.781342 63.6462 0.870672 63.7021 0.982335C63.8139 1.19449 63.9704 1.50715 64.1828 1.8868C64.5853 2.63494 65.1443 3.62874 65.7927 4.58903C66.1169 5.08035 66.4858 5.53817 66.8659 5.97365C67.056 6.18581 67.2572 6.39797 67.4696 6.58779C67.6708 6.77762 67.8944 6.96745 68.118 7.12377C68.5764 7.43643 69.0571 7.69325 69.6049 7.82725C70.0185 7.92774 70.4434 7.97241 70.9129 7.95008C73.9314 11.5121 76.402 15.6548 78.2802 19.8086C80.6726 25.1014 81.9471 30.8632 81.8129 36.6808C81.6676 43.0121 79.5435 49.4439 76.7039 55.0717C74.4903 59.4488 71.2706 63.022 67.1454 65.6796C63.4562 68.058 59.4092 69.8446 55.3957 71.5866C52.3885 72.893 48.811 74.2218 45.1889 75.4166C37.4191 72.826 29.314 69.3198 23.6907 66.1486C20.7505 64.496 18.0898 62.4637 15.8874 59.8955C13.685 57.3272 12.1087 54.29 10.8343 51.1858C8.41949 45.29 6.8879 39.1933 7.268 32.795C7.704 25.3359 10.6442 18.1895 14.7359 11.9923C15.7868 10.4067 16.9159 8.82104 18.1568 7.33593C18.604 7.35826 19.0177 7.3136 19.4201 7.2131C19.9567 7.07911 20.4486 6.82228 20.907 6.50963C21.1306 6.3533 21.3542 6.17464 21.5554 5.97365C21.7678 5.78382 21.969 5.58283 22.1591 5.35951C22.5392 4.92402 22.9081 4.45504 23.2323 3.97489C23.8807 3.01459 24.4397 2.0208 24.8422 1.27266C25.0434 0.893005 25.2111 0.58035 25.3117 0.368191C25.3676 0.256528 25.4123 0.178364 25.4347 0.111367C25.457 0.0555356 25.4682 0.0332031 25.4682 0.0332031H25.3788C25.3117 0.0332031 25.2223 0.0555356 25.0993 0.0667019C24.8534 0.100201 24.4956 0.167198 24.0708 0.267694C23.2211 0.468687 22.0808 0.84834 20.9741 1.45132C19.8785 2.05429 18.8164 2.86943 18.1568 3.87439C17.8214 4.36571 17.5867 4.91286 17.4861 5.48233C17.3966 5.95132 17.419 6.4538 17.542 6.97861C14.6576 10.4067 12.2652 14.3483 10.4206 18.3012C8.12882 23.192 6.75374 28.4736 6.54133 33.867C6.30656 40.0642 7.99467 46.0047 10.32 51.6883C12.1982 56.2553 14.8701 60.4203 18.7046 63.6027V63.5692Z" fill="#FFA300"/>
<path id="Vector_18" d="M64.1471 74.8252C65.5669 74.5795 66.8749 74.1329 67.8139 73.7197C68.753 73.3177 69.3455 72.9828 69.3455 72.9828C69.3455 72.9828 68.7418 72.7483 67.8251 72.4356C66.9084 72.123 65.6787 71.7321 64.3707 71.4195C63.0738 71.1068 61.7211 70.8723 60.4802 70.9282C59.8541 70.9505 59.2616 71.0622 58.6915 71.2632C58.1213 71.4753 57.5847 71.788 56.9922 72.2235C57.3723 73.5187 58.5126 74.3339 59.843 74.7135C61.1845 75.1044 62.7273 75.0709 64.1359 74.8252H64.1471Z" fill="#FFA300"/>
<path id="Vector_19" d="M57.1717 70.1807C57.7418 70.0691 58.2785 69.8011 58.7592 69.4438C59.7206 68.718 60.4585 67.6125 60.9615 66.4847C61.4646 65.3569 61.7441 64.1956 61.8894 63.3247C61.9565 62.8892 62.0012 62.5319 62.0236 62.275C62.0459 62.0182 62.0459 61.873 62.0459 61.873C62.0459 61.873 61.5988 62.1187 60.9392 62.5207C60.2796 62.9338 59.4076 63.5145 58.5579 64.2068C57.7083 64.8991 56.881 65.7031 56.2997 66.641C55.7184 67.579 55.3494 68.651 55.383 70.0021C55.9755 70.2589 56.5904 70.2812 57.1605 70.1696L57.1717 70.1807Z" fill="#FFA300"/>
<path id="Vector_20" d="M73.7074 65.2331C72.3658 65.2777 71.0019 65.3671 69.8281 65.7244C68.6542 66.0817 67.6816 66.707 67.0332 67.8572C67.8381 68.9403 68.9896 69.4428 70.2864 69.4986C71.5833 69.5656 73.0142 69.1859 74.3334 68.583C75.6526 67.9911 76.8488 67.176 77.6873 66.4837C78.1121 66.1487 78.4475 65.8249 78.6822 65.6127C78.917 65.3894 79.04 65.2554 79.04 65.2554C79.04 65.2554 78.3916 65.2443 77.3742 65.2219C76.3793 65.2219 75.0489 65.1884 73.7074 65.2219V65.2331Z" fill="#FFA300"/>
<path id="Vector_21" d="M64.7741 65.8688C66.0485 65.9358 67.077 65.3217 67.8149 64.3837C68.5527 63.4457 68.9887 62.2063 69.1676 60.9892C69.3465 59.772 69.2906 58.6108 69.1452 57.7621C69.0782 57.3378 69.0111 57.0028 68.944 56.7572C68.8769 56.5227 68.8434 56.3887 68.8434 56.3887C68.8434 56.3887 68.7651 56.4668 68.631 56.612C68.4857 56.7572 68.2956 56.9693 68.0608 57.2373C67.5913 57.7733 66.9429 58.5103 66.3057 59.3812C65.6796 60.2522 65.0535 61.246 64.6958 62.3403C64.3492 63.4346 64.2598 64.6182 64.7741 65.8688Z" fill="#FFA300"/>
<path id="Vector_22" d="M82.3712 59.226C82.5054 59.0697 82.6395 58.9022 82.7625 58.7347L82.9525 58.4891L83.0979 58.2881C83.2879 58.0201 83.4668 57.7633 83.6345 57.5064C83.9699 56.9928 84.2605 56.5015 84.4953 56.0772C84.7301 55.6528 84.9201 55.2955 85.0431 55.0499C85.1661 54.793 85.222 54.6367 85.222 54.6367C85.222 54.6367 84.6295 54.8154 83.7016 55.0945C82.7848 55.3849 81.5886 55.8092 80.4148 56.3563C80.1241 56.4903 79.8335 56.6355 79.5428 56.7918C79.2298 56.9705 78.9391 57.138 78.6484 57.3166C78.3578 57.4953 78.0671 57.6628 77.7988 57.8526C77.5305 58.0313 77.2622 58.2099 77.0162 58.4109C76.0324 59.1814 75.3058 60.0635 75.0039 61.3588C76.0883 62.1628 77.3516 62.3079 78.6596 61.8836C79.9676 61.4705 81.2868 60.499 82.3712 59.2149V59.226Z" fill="#FFA300"/>
<path id="Vector_23" d="M74.5446 53.8102C74.2092 52.6042 73.7173 51.5211 73.3037 50.7506C73.1025 50.3598 72.9236 50.0471 72.7783 49.835C72.6329 49.6228 72.5547 49.5 72.5547 49.5C72.5547 49.5 72.51 49.6228 72.4317 49.835C72.3423 50.0471 72.2081 50.3486 72.074 50.7283C71.9398 51.1079 71.7833 51.5434 71.6491 52.0459C71.515 52.5261 71.3696 53.1402 71.3249 53.4975C71.2131 54.3573 71.0678 55.3846 71.1237 56.4677C71.1908 57.5509 71.4703 58.6898 72.3199 59.7283C73.5496 59.438 74.3546 58.5223 74.7011 57.4057C74.7794 57.1265 74.8577 56.8362 74.88 56.5347C74.9024 56.2332 74.9135 55.9318 74.9024 55.6303C74.88 55.3288 74.8353 55.0273 74.7794 54.737C74.7123 54.4243 74.6452 54.1117 74.5558 53.8102H74.5446Z" fill="#FFA300"/>
<path id="Vector_24" d="M88.1731 44.4076C88.2401 44.1284 88.2737 43.9609 88.2737 43.9609C88.2737 43.9609 87.7259 44.2513 86.8651 44.7091C86.0154 45.1781 84.9086 45.8257 83.869 46.5738C82.7845 47.3108 81.7113 48.1483 81.0182 49.1197C80.8505 49.3654 80.6716 49.5999 80.5263 49.8567C80.381 50.1135 80.2692 50.3704 80.1797 50.6495C80.012 51.1967 79.9561 51.7885 80.0679 52.4361C81.3648 52.8046 82.5498 52.5255 83.623 51.8331C83.8913 51.6657 84.1484 51.4647 84.4056 51.2525C84.6515 51.0403 84.9086 50.8059 85.1211 50.549C85.5571 50.0354 85.9595 49.4659 86.3173 48.8853C87.0663 47.7351 87.5135 46.4733 87.8265 45.5354C87.983 45.0664 88.106 44.6756 88.1842 44.3964L88.1731 44.4076Z" fill="#FFA300"/>
<path id="Vector_25" d="M76.9818 51.3762C77.4961 51.0189 77.865 50.5611 78.1221 50.0586C78.2451 49.8129 78.3457 49.5338 78.4128 49.2658C78.4799 48.9866 78.5358 48.7075 78.5246 48.406C78.5246 47.2224 78.1892 45.9717 77.6638 44.8663C77.1048 43.7497 76.4228 42.7894 75.875 42.1194C75.5956 41.7844 75.372 41.5164 75.1819 41.3378C75.003 41.1591 74.8912 41.0586 74.8912 41.0586C74.8912 41.0586 74.8689 41.1814 74.8242 41.3936C74.7795 41.6057 74.7124 41.9184 74.6453 42.298C74.5 43.0574 74.4329 44.0958 74.3658 45.2013C74.3434 45.7484 74.3658 46.3291 74.4329 46.9097C74.4552 47.0549 74.4776 47.2 74.5 47.3452C74.5223 47.4904 74.5335 47.6243 74.567 47.7695C74.6229 48.0487 74.69 48.339 74.7795 48.607C75.1372 49.7013 75.808 50.7062 76.9818 51.3762Z" fill="#FFA300"/>
<path id="Vector_26" d="M85.2876 36.2562C85.064 36.5019 84.8516 36.7476 84.6504 36.9932C84.4491 37.25 84.2479 37.4957 84.0355 37.7525C83.6442 38.2662 83.2977 38.8021 83.0517 39.3381C82.9287 39.6061 82.8281 39.8853 82.7499 40.1644C82.6604 40.4436 82.5933 40.7227 82.5598 41.0019C82.4927 41.5714 82.5598 42.152 82.7946 42.7662C84.1361 42.889 85.2541 42.3753 86.1708 41.482C86.4056 41.2587 86.618 41.0131 86.8304 40.7562C87.0316 40.4883 87.1993 40.2091 87.367 39.9076C87.6912 39.3046 87.9707 38.657 88.2166 38.0093C88.3396 37.6855 88.429 37.3505 88.5073 37.0267C88.5856 36.7029 88.6526 36.3791 88.7085 36.0664C88.8203 35.4411 88.9209 34.8605 88.9657 34.3468C89.0216 33.3419 89.0104 32.6719 89.0104 32.6719C89.0104 32.6719 88.5185 33.085 87.8254 33.7438C87.1546 34.4026 86.182 35.2848 85.31 36.2562H85.2876Z" fill="#FFA300"/>
<path id="Vector_27" d="M80.4595 40.5561C80.5378 40.2881 80.5825 40.009 80.5937 39.7298C80.5937 39.4506 80.5601 39.1603 80.5042 38.87C80.3924 38.3005 80.1912 37.731 79.9229 37.1839C79.8558 37.0499 79.7888 36.9159 79.7105 36.7819C79.6322 36.6479 79.5428 36.5139 79.4534 36.3911C79.2745 36.1343 79.0844 35.8886 78.8944 35.6429C78.5031 35.174 78.1006 34.7385 77.7094 34.37C77.5193 34.1802 77.3181 34.0127 77.1057 33.8563C76.9044 33.7 76.7144 33.5549 76.5355 33.432C75.8312 32.9184 75.3281 32.6504 75.3281 32.6504C75.3281 32.6504 75.3281 33.1305 75.4064 33.8675C75.4287 34.0462 75.4399 34.2472 75.4511 34.4705C75.4623 34.6826 75.4846 34.906 75.5182 35.1516C75.5629 35.6206 75.6747 36.1343 75.7753 36.6591C75.8647 37.1839 75.9989 37.731 76.189 38.2558C76.2784 38.5238 76.3902 38.7807 76.5132 39.0487C76.625 39.3055 76.7367 39.5623 76.8821 39.808C77.441 40.7794 78.2907 41.6281 79.5763 42.0747C80.0123 41.6281 80.2918 41.1144 80.4372 40.5784L80.4595 40.5561Z" fill="#FFA300"/>
<path id="Vector_28" d="M82.8508 29.4236C82.7167 30.0042 82.6719 30.5737 82.7614 31.1432C82.8061 31.4223 82.8955 31.7015 82.985 31.9695C83.0856 32.2486 83.2086 32.5166 83.3874 32.7846C84.7178 32.5948 85.7463 31.8355 86.3835 30.7412C86.7077 30.1941 86.9649 29.5687 87.1661 28.9099C87.345 28.2511 87.4344 27.5476 87.4903 26.8553C87.5127 26.5092 87.535 26.163 87.5462 25.8169C87.5462 25.4819 87.5238 25.1581 87.4903 24.8343C87.4456 24.1978 87.3673 23.606 87.3002 23.1035C87.099 22.1209 86.909 21.4844 86.909 21.4844C86.909 21.4844 86.54 22.0092 86.037 22.8243C85.791 23.2263 85.5004 23.6953 85.1761 24.2201C84.8631 24.7449 84.5389 25.3032 84.2371 25.8839C83.9464 26.4534 83.6334 27.0563 83.3874 27.6481C83.1303 28.24 82.9514 28.8318 82.8396 29.4124L82.8508 29.4236Z" fill="#FFA300"/>
<path id="Vector_29" d="M80.3026 29.2545C80.0567 28.7297 79.6989 28.2384 79.2964 27.7806C79.0952 27.5573 78.8828 27.3339 78.6592 27.1329C78.4356 26.932 78.1785 26.7421 77.9437 26.5635C76.9488 25.8488 75.9426 25.3463 75.1041 25.0449C74.288 24.7434 73.7402 24.6094 73.7402 24.6094C73.7402 24.6094 73.852 25.0672 74.1203 25.7483C74.2321 26.0945 74.3663 26.4965 74.5452 26.932C74.6346 27.1441 74.7352 27.3674 74.8358 27.6019C74.9476 27.8253 75.0371 28.0709 75.1489 28.3054C75.3724 28.7744 75.6519 29.2545 75.965 29.7124C76.2556 30.1702 76.591 30.6168 76.9935 31.0076C77.8208 31.7893 78.7934 32.4034 80.1349 32.5374C80.3026 32.2694 80.4256 32.0014 80.515 31.7334C80.6044 31.4543 80.6268 31.1863 80.6268 30.9071C80.6268 30.36 80.5038 29.8017 80.2802 29.2769L80.3026 29.2545Z" fill="#FFA300"/>
<path id="Vector_30" d="M82.1357 11.3223C82.1357 11.3223 81.9121 11.9029 81.599 12.8185C81.286 13.7342 80.9283 14.929 80.6041 16.2019C80.4475 16.8384 80.3357 17.4749 80.2351 18.1002C80.1345 18.7367 80.0898 19.362 80.1345 19.9426C80.1681 20.2329 80.1904 20.5233 80.2463 20.8024C80.3022 21.0816 80.3805 21.3496 80.4923 21.6064C80.6041 21.8632 80.7494 22.1089 80.9283 22.3434C81.096 22.5778 81.286 22.8123 81.5208 23.0245C82.1468 22.7565 82.6499 22.388 83.0412 21.919C83.4437 21.4501 83.7008 20.9029 83.8908 20.2999C83.9803 19.9984 84.0474 19.6746 84.1032 19.3508C84.148 19.027 84.1927 18.6808 84.1815 18.3458C84.1815 17.6647 84.1144 16.9724 84.0026 16.2912C83.7343 14.9513 83.2983 13.6783 82.8735 12.785C82.6723 12.3384 82.4822 11.9699 82.3592 11.7131C82.2251 11.4674 82.1357 11.3223 82.1357 11.3223Z" fill="#FFA300"/>
<path id="Vector_31" d="M78.1331 20.8019C78.0101 20.5563 77.8648 20.3106 77.6636 20.0985C77.2835 19.663 76.8363 19.2721 76.3444 18.926C75.8413 18.591 75.2711 18.323 74.7122 18.0997C74.4327 17.988 74.1532 17.8875 73.8849 17.8094C73.6054 17.72 73.3259 17.653 73.0576 17.5972C72.521 17.4744 72.0179 17.3962 71.5931 17.3404C71.1683 17.2846 70.8217 17.2622 70.5646 17.2511C70.3074 17.2399 70.1621 17.2511 70.1621 17.2511C70.1621 17.2511 70.218 17.3516 70.341 17.5414C70.4528 17.72 70.5981 17.988 70.8105 18.2895C70.9111 18.4458 71.0229 18.6022 71.1571 18.7808C71.2242 18.859 71.2801 18.9595 71.3583 19.0488C71.4254 19.1382 71.4813 19.2275 71.5484 19.328C71.8167 19.7076 72.1409 20.1096 72.4986 20.5004C72.834 20.9024 73.2029 21.2932 73.6278 21.6506C73.7284 21.7399 73.8402 21.8292 73.952 21.9185C74.0526 22.0079 74.1644 22.086 74.2762 22.1754C74.4886 22.3429 74.7233 22.4992 74.9693 22.6332C75.45 22.9123 75.9978 23.1245 76.5568 23.2473C77.1158 23.3702 77.7306 23.4037 78.4014 23.292C78.4908 23.0017 78.5467 22.7002 78.5691 22.421C78.5691 22.1419 78.5356 21.8627 78.4685 21.5947C78.4014 21.3267 78.3008 21.0699 78.1778 20.8243L78.1331 20.8019Z" fill="#FFA300"/>
<path id="Vector_32" d="M77.2942 14.1374C78.3675 13.3334 78.8705 12.2056 78.9488 10.9327C78.9823 10.3073 78.9041 9.64853 78.7699 8.98973C78.6246 8.33092 78.3898 7.69444 78.1327 7.05796C77.8644 6.43265 77.5402 5.86317 77.2383 5.32719C76.9253 4.79121 76.5899 4.3334 76.2992 3.94258C76.0198 3.54059 75.7514 3.23911 75.5614 3.02695C75.3713 2.81479 75.2707 2.70312 75.2707 2.70312C75.2707 2.70312 75.1701 3.32844 75.0695 4.25523C75.0136 4.72422 74.9577 5.28253 74.913 5.87434C74.8906 6.16466 74.8683 6.47732 74.8571 6.78997C74.8459 7.10263 74.8236 7.42645 74.8236 7.75027C74.8124 9.03439 74.8683 10.3632 75.2148 11.4798C75.3713 12.0493 75.6173 12.5629 75.9639 12.9984C76.2881 13.4562 76.7241 13.8359 77.2942 14.1262V14.1374Z" fill="#FFA300"/>
<path id="Vector_33" d="M72.8801 11.8913C71.9633 11.2102 70.7448 10.797 69.5486 10.6184C68.9561 10.5179 68.3635 10.4844 67.8046 10.4844C67.2568 10.4844 66.7537 10.5067 66.3177 10.5402C65.4457 10.6295 64.8867 10.7524 64.8867 10.7524C64.8867 10.7524 64.965 10.8417 65.1215 10.998C65.2668 11.1544 65.4904 11.3665 65.7587 11.6345C66.027 11.9025 66.3512 12.1928 66.709 12.5055C67.0667 12.8181 67.4692 13.1419 67.9052 13.4546C68.33 13.7784 68.7995 14.0687 69.2914 14.3367C69.7722 14.6047 70.2864 14.828 70.8342 14.9844C71.9074 15.297 73.0813 15.3417 74.3222 14.8057C74.3558 14.1916 74.2216 13.6333 73.9756 13.1419C73.7185 12.6618 73.3384 12.2486 72.8801 11.9025V11.8913Z" fill="#FFA300"/>
</g>
</svg>
