<svg width="42" height="42" viewBox="0 0 42 42" fill="none" xmlns="http://www.w3.org/2000/svg">
<g id="award-03" clip-path="url(#clip0_1697_2821)">
<path id="Icon" d="M14.0787 24.2201L10.4921 32.851L17.7803 30.7661C18.018 30.6981 18.1368 30.6641 18.2525 30.6694C18.3549 30.6741 18.4551 30.7009 18.5461 30.748C18.6489 30.8013 18.7349 30.8902 18.9067 31.0679L24.176 36.5176L25.3872 27.246M29.899 12.0165C29.9734 12.5843 30.2702 13.0992 30.7242 13.4482L32.3164 14.67C32.7709 15.0187 33.0681 15.5337 33.1429 16.1015C33.2176 16.6694 33.0638 17.2438 32.7151 17.6982L31.4941 19.2894C31.1453 19.7441 30.9909 20.3189 31.0668 20.887L31.3274 22.8747C31.3645 23.156 31.3458 23.4418 31.2724 23.7159C31.199 23.99 31.0724 24.2469 30.8996 24.472C30.7269 24.6971 30.5115 24.886 30.2658 25.0278C30.0201 25.1696 29.7488 25.2617 29.4675 25.2986L27.479 25.5604C26.9113 25.6348 26.3963 25.9316 26.0474 26.3856L24.8255 27.9779C24.4769 28.4324 23.9619 28.7297 23.3941 28.8044C22.8262 28.8792 22.2519 28.7253 21.7975 28.3766L20.2063 27.1557C19.7518 26.8075 19.1775 26.6541 18.6099 26.7292L16.6203 26.9901C16.0529 27.0645 15.4791 26.9106 15.025 26.5622C14.571 26.2137 14.2738 25.6994 14.1988 25.132L13.9367 23.1415C13.8624 22.5737 13.5656 22.0587 13.1116 21.7098L11.5193 20.4879C11.0651 20.1394 10.7679 19.6247 10.693 19.0571C10.6181 18.4895 10.7716 17.9154 11.1198 17.4609L12.3408 15.8697C12.689 15.4151 12.8424 14.8409 12.7673 14.2732L12.5073 12.2824C12.4701 12.0011 12.4888 11.7153 12.5622 11.4412C12.6356 11.1671 12.7623 10.9102 12.935 10.6851C13.1077 10.46 13.3231 10.2711 13.5688 10.1293C13.8146 9.98744 14.0859 9.89543 14.3672 9.85848L16.3556 9.59667C16.9228 9.52234 17.4374 9.22598 17.7864 8.77264L19.0082 7.18029C19.3569 6.72586 19.8718 6.42856 20.4397 6.35379C21.0076 6.27902 21.5819 6.4329 22.0363 6.7816L23.6274 8.00255C24.082 8.35072 24.6562 8.50412 25.2239 8.42903L27.2137 8.17011C27.7815 8.09544 28.3557 8.24934 28.81 8.59796C29.2643 8.94658 29.5616 9.46138 29.6364 10.0292L29.8984 12.0197L29.899 12.0165Z" stroke="#101010" stroke-width="1.5" stroke-linecap="round" stroke-linejoin="round"/>
</g>
<defs>
<clipPath id="clip0_1697_2821">
<rect width="34" height="34" fill="white" transform="translate(8.98047 0.179688) rotate(15)"/>
</clipPath>
</defs>
</svg>
