<svg xmlns="http://www.w3.org/2000/svg" width="318" height="238" viewBox="0 0 318 238" fill="none">
<path opacity="0.5" d="M2.24526 211.013C0.871731 211.154 -0.127678 212.381 0.0130126 213.755C0.153704 215.128 1.38122 216.128 2.75474 215.987L2.24526 211.013ZM317.451 19.0631C318.314 17.9856 318.141 16.4122 317.063 15.5489L299.504 1.48078C298.426 0.617491 296.853 0.791174 295.989 1.86871C295.126 2.94625 295.3 4.51961 296.377 5.3829L311.986 17.8879L299.481 33.4964C298.617 34.5739 298.791 36.1473 299.869 37.0106C300.946 37.8739 302.52 37.7002 303.383 36.6227L317.451 19.0631ZM2.75474 215.987C74.6836 208.619 123.942 207.444 156.692 209.441C173.069 210.439 185.259 212.227 194.063 214.406C202.939 216.603 208.114 219.136 210.721 221.437C211.999 222.565 212.525 223.518 212.7 224.217C212.863 224.867 212.783 225.517 212.382 226.241C211.491 227.853 209.053 229.69 205.051 231.027C197.196 233.653 185.26 233.688 175.179 228.296L172.821 232.704C184.24 238.812 197.617 238.784 206.636 235.769C211.072 234.287 214.962 231.908 216.758 228.66C217.702 226.953 218.055 225.01 217.55 223C217.057 221.039 215.814 219.263 214.029 217.688C210.511 214.583 204.389 211.811 195.265 209.553C186.069 207.277 173.556 205.459 156.996 204.45C123.871 202.431 74.3164 203.631 2.24526 211.013L2.75474 215.987ZM175.179 228.296C165.202 222.959 154.533 209.027 147.839 190.262C141.184 171.605 138.624 148.597 144.424 125.548C155.951 79.7465 200.868 32.6694 315.774 19.9849L315.226 15.0151C199.132 27.8306 151.799 75.7535 139.576 124.327C133.501 148.466 136.191 172.489 143.13 191.941C150.03 211.286 161.298 226.541 172.821 232.704L175.179 228.296Z" fill="white"/>
</svg>