<svg width="50" height="50" viewBox="0 0 50 50" fill="none" xmlns="http://www.w3.org/2000/svg">
<g id="chart-breakout-square">
<path id="Icon" d="M22.9167 6.24935H16.25C12.7497 6.24935 10.9995 6.24935 9.66256 6.93056C8.48655 7.52977 7.53042 8.4859 6.93121 9.66191C6.25 10.9989 6.25 12.749 6.25 16.2493V33.7493C6.25 37.2497 6.25 38.9998 6.93121 40.3368C7.53042 41.5128 8.48655 42.4689 9.66256 43.0681C10.9995 43.7493 12.7497 43.7493 16.25 43.7493H33.75C37.2503 43.7493 39.0005 43.7493 40.3374 43.0681C41.5135 42.4689 42.4696 41.5128 43.0688 40.3368C43.75 38.9998 43.75 37.2497 43.75 33.7493V27.0827M25 16.666H33.3333V24.9993M32.2917 7.29102V4.16602M40.4986 9.50072L42.7083 7.29102M42.7297 17.7077H45.8547M6.25 27.8058C7.60821 28.0155 8.99973 28.1243 10.4167 28.1243C19.5549 28.1243 27.6361 23.5985 32.541 16.666" stroke="#FFA300" stroke-width="1.5" stroke-linecap="round" stroke-linejoin="round"/>
</g>
</svg>
