<svg width="50" height="50" viewBox="0 0 50 50" fill="none" xmlns="http://www.w3.org/2000/svg">
<g id="credit-card-download">
<path id="Icon" d="M18.7503 35.4173L25.0003 41.6673M25.0003 41.6673L31.2503 35.4173M25.0003 41.6673V27.084M45.8337 18.7507H4.16699M11.4587 37.5006H10.8337C8.50011 37.5006 7.33333 37.5006 6.44203 37.0465C5.65802 36.647 5.0206 36.0096 4.62113 35.2256C4.16699 34.3343 4.16699 33.1675 4.16699 30.834V15.0007C4.16699 12.6671 4.16699 11.5003 4.62113 10.609C5.0206 9.82502 5.65802 9.1876 6.44203 8.78812C7.33333 8.33398 8.50011 8.33398 10.8337 8.33398H39.167C41.5005 8.33398 42.6673 8.33398 43.5586 8.78813C44.3426 9.1876 44.98 9.82502 45.3795 10.609C45.8337 11.5003 45.8337 12.6671 45.8337 15.0007V30.834C45.8337 33.1675 45.8337 34.3343 45.3795 35.2256C44.98 36.0096 44.3426 36.647 43.5586 37.0465C42.6673 37.5007 41.5005 37.5007 39.167 37.5007H38.542" stroke="#FFA300" stroke-width="1.5" stroke-linecap="round" stroke-linejoin="round"/>
</g>
</svg>
