<svg width="50" height="50" viewBox="0 0 50 50" fill="none" xmlns="http://www.w3.org/2000/svg">
<g id="pie-chart-04">
<path id="Icon" d="M25.0004 24.9993L4.8582 19.6776C3.56229 24.5824 4.1006 29.7915 6.37214 34.3277C8.64367 38.8638 12.4923 42.4153 17.196 44.3157L25.0004 24.9993ZM25.0004 24.9993L25.2185 4.16716C20.5953 4.11874 16.0873 5.60962 12.4045 8.40498C8.72179 11.2003 6.07354 15.1413 4.8769 19.6073L25.0004 24.9993ZM45.8337 24.9993C45.8337 36.5053 36.5063 45.8327 25.0004 45.8327C13.4944 45.8327 4.16702 36.5053 4.16702 24.9993C4.16702 13.4934 13.4944 4.16602 25.0004 4.16602C36.5063 4.16602 45.8337 13.4934 45.8337 24.9993Z" stroke="#FFA300" stroke-width="1.5" stroke-linecap="round" stroke-linejoin="round"/>
</g>
</svg>
