<svg width="50" height="50" viewBox="0 0 50 50" fill="none" xmlns="http://www.w3.org/2000/svg">
<g id="scale-01">
<path id="Icon" d="M29.167 45.8327H14.167M14.167 45.8327C10.6667 45.8327 8.9165 45.8327 7.57955 45.1515C6.40354 44.5523 5.44741 43.5961 4.8482 42.4201C4.16699 41.0832 4.16699 39.333 4.16699 35.8327M14.167 45.8327H15.0003C18.5007 45.8327 20.2508 45.8327 21.5878 45.1515C22.7638 44.5523 23.7199 43.5961 24.3191 42.4201C25.0003 41.0832 25.0003 39.333 25.0003 35.8327V34.9993C25.0003 31.499 25.0003 29.7489 24.3191 28.4119C23.7199 27.2359 22.7638 26.2798 21.5878 25.6806C20.2508 24.9993 18.5007 24.9993 15.0003 24.9993H14.167C10.6667 24.9993 8.9165 24.9993 7.57955 25.6806C6.40354 26.2798 5.44741 27.2359 4.8482 28.4119C4.16699 29.7489 4.16699 31.499 4.16699 34.9993V35.8327M4.16699 35.8327V20.8327M20.8337 4.16602H29.167M45.8337 20.8327V29.166M37.5003 45.8327C39.4378 45.8327 40.4065 45.8327 41.2013 45.6197C43.3581 45.0418 45.0428 43.3571 45.6207 41.2003C45.8337 40.4055 45.8337 39.4368 45.8337 37.4993M45.8337 12.4993C45.8337 10.5619 45.8337 9.59319 45.6207 8.7984C45.0428 6.64157 43.3581 4.9569 41.2013 4.37898C40.4065 4.16602 39.4378 4.16602 37.5003 4.16602M12.5003 4.16602C10.5629 4.16602 9.59416 4.16602 8.79937 4.37898C6.64255 4.9569 4.95788 6.64157 4.37996 8.7984C4.16699 9.59319 4.16699 10.5619 4.16699 12.4993" stroke="#FFA300" stroke-width="1.5" stroke-linecap="round" stroke-linejoin="round"/>
</g>
</svg>
