<svg xmlns="http://www.w3.org/2000/svg" width="192" height="70" viewBox="0 0 192 70" fill="none">
  <g clip-path="url(#clip0_1564_3872)">
    <path d="M48.407 0C41.9158 0 38.1602 4.45919 38.1602 12.2163V35.2555C38.1602 42.9197 42.0085 47.4718 48.407 47.4718C54.8518 47.4718 58.7001 42.9197 58.7001 35.2555V12.2163C58.7465 4.45919 54.9909 0 48.407 0ZM44.5122 11.9376C44.5122 8.36098 45.8105 6.54944 48.407 6.54944C49.3806 6.54944 52.3017 6.54944 52.3017 11.9376V35.4877C52.3017 40.3185 50.0761 40.8759 48.407 40.8759C47.4333 40.8759 44.5122 40.8759 44.5122 35.4877V11.9376Z" fill="white"/>
    <path d="M31.6219 0.464844H25.1307V3.25184L25.177 35.1165C25.177 35.581 25.1307 35.999 25.1307 36.3706C25.0843 36.6958 25.0379 37.0674 25.0379 37.3461C24.7597 39.297 24.157 40.0866 22.8124 40.3653C22.7197 40.4118 22.4878 40.4118 22.4878 40.4118C22.3951 40.4118 22.256 40.4582 22.1169 40.4582C22.0242 40.4582 21.3287 40.4582 21.3287 40.4582H20.8187H19.0568H15.9966C15.9966 40.4582 19.0568 40.0402 19.0568 38.4144V0.464844H12.5656V40.4582H6.53806H3.47793C3.47793 40.4582 6.53806 40.4582 6.53806 38.4144V0.464844H0.046875V47.0076H20.8187H22.3024C22.4878 47.0076 22.6269 47.0076 22.8124 47.0076C29.3963 46.6825 31.1118 42.0375 31.5755 36.928C31.6219 36.2777 31.6682 35.581 31.7146 34.8842L31.6219 0.464844Z" fill="white"/>
    <path d="M75.7152 0.464844C67.8794 0.557744 66.5812 6.64268 66.3957 12.5883L66.0248 22.6214L65.9321 24.9904L65.6075 35.1629C65.4684 39.1576 64.912 40.3653 62.5938 40.5047V47.0541H62.6865C70.5223 46.9612 71.8205 40.8763 72.006 34.9307L72.4233 22.575L72.7942 12.356C72.9333 8.36133 73.4897 7.15363 75.8079 6.96783H81.7891C81.7891 6.96783 78.6826 6.96783 78.6826 9.01162V47.0076H85.1274V0.464844H75.7152Z" fill="white"/>
    <path d="M106.502 15.7933C105.713 15.5611 104.832 15.4217 103.905 15.4217C103.72 15.4217 103.581 15.4217 103.395 15.4217C101.911 15.5146 100.428 15.9791 99.1759 16.8152C99.0832 16.8617 98.9904 16.9546 98.8977 17.001C98.6659 17.1868 98.434 17.3726 98.1558 17.512C97.3676 18.0229 96.4403 18.3945 95.513 18.441H95.2812C95.3739 18.441 97.8776 17.8836 98.2949 16.1185C98.3413 15.9791 98.3413 15.7933 98.3413 15.654V0.464844H91.8965V35.2558C91.8965 40.1795 93.5193 43.849 96.4867 45.7999C97.0894 46.218 97.7386 46.5431 98.434 46.7754C99.6395 47.2399 100.984 47.4257 102.468 47.4257C103.952 47.4257 105.296 47.1934 106.502 46.7754C107.197 46.4967 107.893 46.1715 108.495 45.7535C111.463 43.8026 113.086 40.1331 113.086 35.2094V27.0342C113.086 21.0421 110.628 16.9546 106.502 15.7933ZM106.502 35.4881C106.502 40.3653 104.23 40.9227 102.514 40.9227C101.541 40.9227 98.4804 40.9227 98.4804 35.4881V27.4058C98.4804 25.8265 98.7586 24.6188 99.2686 23.7362L99.315 23.6898C100.01 22.575 101.077 22.0176 102.468 22.0176C104.322 22.0176 105.621 23.0395 106.223 24.851C106.409 25.4549 106.502 26.1516 106.502 27.0342V35.4881Z" fill="white"/>
    <path d="M131.91 0.464844V20.0667C131.91 21.646 131.632 22.8537 131.122 23.7362L131.075 23.7827C130.38 24.8975 129.313 25.4549 127.922 25.4549C126.068 25.4549 124.77 24.433 124.167 22.6214C123.981 22.0176 123.889 21.3209 123.889 20.4383V0.464844H117.305V20.4383C117.305 26.4303 119.762 30.4715 123.889 31.6792C124.677 31.9114 125.558 32.0508 126.485 32.0508C126.671 32.0508 126.81 32.0508 126.995 32.0508C128.479 31.9579 129.962 31.4934 131.214 30.6573C131.307 30.6108 131.4 30.5179 131.493 30.4715C131.724 30.2857 131.956 30.0999 132.234 29.9605C133.023 29.4496 133.95 29.078 134.877 29.0315H135.109C135.016 29.0315 132.513 29.5889 132.095 31.354C132.049 31.4934 132.049 31.6792 132.049 31.8185V47.0076H138.494V0.464844H131.91Z" fill="white"/>
    <path d="M148.695 40.4582C148.695 40.4582 151.801 40.0402 151.801 38.4144V26.6626H158.339H161.26V20.1596H148.741C148.741 20.1596 151.801 19.7416 151.848 18.1623V12.4025C151.848 11.938 151.894 11.5199 151.894 11.1483C151.94 10.7767 151.94 10.4516 151.987 10.1729C152.033 9.75482 152.126 9.42967 152.219 9.10452C152.636 7.71103 153.378 7.15363 154.908 7.06073C154.954 7.06073 155.14 7.06073 155.325 7.06073H155.371C155.51 7.06073 155.603 7.06073 155.603 7.06073H155.928H164.134V0.464844H156.16H154.676C147.675 0.557744 145.866 5.34208 145.403 10.5445C145.356 11.1948 145.31 11.8915 145.264 12.5883V47.0541H166.175V42.0375V40.4582H148.695Z" fill="white"/>
    <path d="M187.874 22.203C190.099 20.6701 190.934 18.3012 191.212 15.9322C191.305 15.0961 191.351 14.2136 191.351 13.4239V12.913V12.6343C191.351 12.5414 191.351 12.4485 191.351 12.402C191.305 7.6177 189.682 4.04106 186.807 2.09017C186.205 1.67212 185.556 1.34697 184.86 1.06827C183.794 0.650218 182.588 0.464419 181.29 0.417969C179.992 0.464419 178.786 0.650218 177.72 1.06827C177.024 1.34697 176.375 1.67212 175.772 2.09017C172.898 4.04106 171.275 7.57125 171.229 12.402V12.6343V15.9322V47.0072H181.707C188.523 47.0072 192.139 43.059 192.139 35.5805V31.8181C192 27.1267 190.609 23.9216 187.874 22.203ZM177.627 12.402C177.627 7.8964 179.574 7.10675 181.197 7.01385C182.866 7.10675 184.86 7.8964 184.86 12.402V14.4458C184.86 14.9103 184.86 15.3748 184.814 15.7464C184.535 18.4405 183.284 19.3231 180.27 19.3231H174.567C174.567 19.3231 177.673 18.905 177.673 17.2793V15.8858L177.627 12.402ZM185.556 35.4412C185.556 38.9249 184.443 40.4113 181.8 40.4578H174.52C174.52 40.4578 177.627 40.0397 177.627 38.414V25.8725H180.733C184.35 25.8725 185.602 27.266 185.602 31.493V35.4412H185.556Z" fill="white"/>
    <path d="M0 67.3061V58.7129H3.19923C3.89471 58.7129 4.54383 58.8058 5.05385 59.038C5.56387 59.2703 6.02753 59.549 6.39845 59.967C6.76938 60.3386 7.04757 60.8031 7.18667 61.3141C7.37213 61.825 7.46486 62.3824 7.46486 62.9863C7.46486 63.6366 7.37213 64.2404 7.18667 64.7514C7.00121 65.2623 6.67665 65.7268 6.30572 66.0984C5.9348 66.47 5.47114 66.7487 4.96112 66.981C4.4511 67.1668 3.84835 67.3061 3.19923 67.3061H0ZM5.47114 63.0327C5.47114 62.6611 5.42478 62.2895 5.33205 62.0108C5.23931 61.7321 5.10022 61.4534 4.91476 61.2212C4.72929 60.9889 4.49746 60.8031 4.21927 60.7102C3.94108 60.5709 3.61652 60.5244 3.24559 60.5244H1.99372V65.6339H3.19923C3.57015 65.6339 3.89471 65.5875 4.1729 65.4481C4.4511 65.3088 4.68293 65.123 4.86839 64.8907C5.05385 64.6585 5.19295 64.3798 5.28568 64.1011C5.37841 63.8224 5.47114 63.4043 5.47114 63.0327Z" fill="white"/>
    <path d="M12.1016 60.2456V58.4805H14.0489V60.2456H12.1016ZM12.1016 67.3059V60.9423H14.0489V67.3059H12.1016Z" fill="white"/>
    <path d="M21.4206 67.3511C21.0033 67.3511 20.6324 67.2582 20.2615 67.1188C19.9369 66.933 19.6123 66.7008 19.3805 66.4221C19.1487 66.1434 18.9632 65.7718 18.8241 65.4002C18.685 65.0286 18.6387 64.6105 18.6387 64.146C18.6387 63.6815 18.7314 63.2635 18.8705 62.8454C19.0096 62.4274 19.1951 62.1022 19.4733 61.8235C19.7514 61.5448 20.0296 61.3126 20.4006 61.1268C20.7715 60.941 21.1424 60.8945 21.6061 60.8945C22.0697 60.8945 22.487 60.9874 22.8579 61.2197C23.2289 61.4055 23.5071 61.7306 23.7389 62.0558V61.0339H25.4081V66.8866C25.4081 67.3511 25.3153 67.8156 25.1299 68.1872C24.9444 68.5588 24.7126 68.8839 24.388 69.1626C24.0634 69.4413 23.6925 69.6271 23.2289 69.7665C22.7652 69.9058 22.3016 69.9987 21.7452 69.9987C21.0497 69.9987 20.4933 69.9058 19.9833 69.6736C19.5196 69.4413 19.056 69.1626 18.7314 68.7446L19.7514 67.6762C19.9833 67.9549 20.2615 68.1407 20.6324 68.3265C20.957 68.4659 21.3279 68.5588 21.7452 68.5588C21.977 68.5588 22.2088 68.5123 22.3943 68.4659C22.6261 68.4194 22.7652 68.2801 22.9507 68.1872C23.0898 68.0478 23.2289 67.862 23.3216 67.6762C23.4143 67.4904 23.4607 67.2117 23.4607 66.8866V66.2827C23.2752 66.6543 22.997 66.8866 22.6261 67.0724C22.2088 67.2582 21.8379 67.3511 21.4206 67.3511ZM22.0697 65.8182C22.3479 65.8182 22.6261 65.7253 22.8579 65.586C23.0898 65.4466 23.2752 65.2144 23.4143 64.9357V63.5886C23.2752 63.2635 23.0898 62.9848 22.8116 62.799C22.5334 62.6132 22.2552 62.5203 21.977 62.5203C21.7452 62.5203 21.5597 62.5667 21.4206 62.6596C21.2351 62.7525 21.096 62.8919 20.957 63.0312C20.8179 63.1706 20.7251 63.3564 20.6788 63.5886C20.6324 63.7744 20.586 64.0067 20.586 64.2389C20.586 64.4712 20.6324 64.7034 20.6788 64.8892C20.7715 65.075 20.8642 65.2608 21.0033 65.4002C21.1424 65.5395 21.2815 65.6789 21.467 65.7253C21.6524 65.7718 21.8843 65.8182 22.0697 65.8182Z" fill="white"/>
    <path d="M30.2773 60.2456V58.4805H32.2247V60.2456H30.2773ZM30.2773 67.3059V60.9423H32.2247V67.3059H30.2773Z" fill="white"/>
    <path d="M41.265 66.982C40.9868 67.0749 40.7087 67.2142 40.3377 67.3071C40.0132 67.4 39.6422 67.4465 39.3177 67.4465C39.0859 67.4465 38.854 67.4 38.6222 67.3536C38.3904 67.3071 38.2049 67.2142 38.0658 67.0749C37.9267 66.9355 37.7876 66.7497 37.6949 66.5639C37.6022 66.3317 37.5558 66.0995 37.5558 65.7743V62.4764H36.7676V61.0364H37.5558V59.0391H39.5031V61.0364H40.8014V62.4764H39.5031V65.124C39.5031 65.3562 39.5495 65.4956 39.6422 65.5885C39.735 65.6814 39.8741 65.7278 40.0595 65.7278C40.1986 65.7278 40.3377 65.6814 40.5232 65.635C40.6623 65.5885 40.8014 65.5421 40.9405 65.4956L41.265 66.982Z" fill="white"/>
    <path d="M47.4326 67.4444C47.108 67.4444 46.8298 67.3979 46.5516 67.305C46.2734 67.2121 46.0416 67.0728 45.8562 66.887C45.6707 66.7012 45.5316 66.5154 45.3925 66.2367C45.2534 65.958 45.207 65.7257 45.207 65.447C45.207 65.1219 45.2534 64.8432 45.3925 64.611C45.5316 64.3323 45.7171 64.1464 45.9489 63.9606C46.1807 63.7749 46.4589 63.6355 46.7835 63.5426C47.108 63.4497 47.4789 63.4033 47.8962 63.4033C48.1744 63.4033 48.4063 63.4033 48.6845 63.4497C48.9163 63.4962 49.1481 63.5426 49.3336 63.6355V63.3568C49.3336 62.6136 48.9163 62.242 48.0817 62.242C47.7571 62.242 47.3862 62.2885 47.108 62.4278C46.8298 62.5672 46.4589 62.7065 46.1343 62.9388L45.578 61.7311C45.9952 61.4524 46.4125 61.2666 46.8762 61.1272C47.3398 60.9879 47.8035 60.9414 48.3135 60.9414C49.2872 60.9414 50.0291 61.1737 50.5391 61.6382C51.0491 62.1027 51.3273 62.753 51.3273 63.6355V65.2612C51.3273 65.447 51.3737 65.5864 51.42 65.6793C51.4664 65.7722 51.6055 65.8186 51.7446 65.8186V67.4444C51.5591 67.4908 51.42 67.4908 51.2809 67.5373C51.1418 67.5373 51.0027 67.5373 50.91 67.5373C50.5391 67.5373 50.2609 67.4444 50.0754 67.305C49.89 67.1657 49.7972 66.9799 49.7045 66.7012L49.6581 66.4225C49.3799 66.7941 49.0554 67.0728 48.6381 67.2586C48.2672 67.3515 47.8499 67.4444 47.4326 67.4444ZM47.989 66.0509C48.2208 66.0509 48.4063 66.0044 48.5917 65.958C48.7772 65.8651 48.9626 65.7722 49.1017 65.6793C49.2872 65.5399 49.3799 65.4006 49.3799 65.2148V64.611C49.1945 64.5645 49.009 64.5181 48.8236 64.4716C48.6381 64.4252 48.4526 64.4251 48.2672 64.4251C47.8962 64.4251 47.618 64.518 47.3862 64.6574C47.1544 64.7967 47.0617 65.029 47.0617 65.3077C47.0617 65.54 47.1544 65.7257 47.3398 65.8651C47.4789 65.958 47.7108 66.0509 47.989 66.0509Z" fill="white"/>
    <path d="M56.2886 58.4805H58.2359V65.0299C58.2359 65.4944 58.4214 65.7731 58.8387 65.7731C58.9314 65.7731 59.0241 65.7731 59.1632 65.7267C59.3023 65.6802 59.395 65.6338 59.4878 65.5873L59.7196 67.0273C59.4878 67.1202 59.2096 67.213 58.885 67.3059C58.5605 67.3524 58.2823 67.3989 58.0041 67.3989C57.4477 67.3989 57.0304 67.2595 56.7058 66.9808C56.4276 66.7021 56.2422 66.2841 56.2422 65.7267V58.4805H56.2886Z" fill="white"/>
    <path d="M63.707 64.8905V63.1719H67.4163V64.8905H63.707Z" fill="white"/>
    <path d="M78.1732 67.305H76.2722V62.6601H74.3248V67.305H72.4238V60.9414H78.2195V67.305H78.1732Z" fill="white"/>
    <path d="M87.1666 67.4451C86.703 67.4451 86.2857 67.3522 85.9147 67.1199C85.5438 66.8877 85.2656 66.6554 85.0802 66.2838V69.8605H83.1328V60.9421H84.802V61.964C85.0338 61.5924 85.312 61.3137 85.6829 61.1279C86.0538 60.9421 86.4711 60.8027 86.9348 60.8027C87.3521 60.8027 87.7694 60.8956 88.0939 61.035C88.4649 61.2208 88.7431 61.453 89.0212 61.7317C89.2994 62.0104 89.4849 62.382 89.624 62.7536C89.7631 63.1717 89.8558 63.5897 89.8558 64.0542C89.8558 64.5187 89.8095 64.9832 89.6704 65.3548C89.5313 65.7729 89.3458 66.098 89.114 66.3767C88.8821 66.6554 88.604 66.8877 88.233 67.0735C87.9548 67.3522 87.5839 67.4451 87.1666 67.4451ZM86.5175 65.8193C86.7493 65.8193 86.9348 65.7729 87.0739 65.68C87.213 65.5871 87.3984 65.4477 87.5375 65.3084C87.6766 65.169 87.7694 64.9832 87.8157 64.751C87.8621 64.5652 87.9085 64.3329 87.9085 64.1007C87.9085 63.8684 87.8621 63.6362 87.8157 63.4504C87.723 63.2646 87.6303 63.0788 87.4912 62.9394C87.3521 62.8001 87.213 62.6607 87.0275 62.6143C86.8421 62.5214 86.6566 62.4749 86.4248 62.4749C86.1466 62.4749 85.9147 62.5678 85.6366 62.7072C85.4047 62.8465 85.2193 63.0788 85.0802 63.3575V64.6581C85.2193 64.9832 85.4047 65.2619 85.6829 65.4477C85.9611 65.68 86.2393 65.8193 86.5175 65.8193Z" fill="white"/>
    <path d="M97.5077 67.4451C96.9514 67.4451 96.4877 67.3522 96.0704 67.1664C95.6531 66.9806 95.2822 66.7483 95.004 66.4696C94.7258 66.1909 94.494 65.8193 94.3549 65.4013C94.2158 64.9832 94.123 64.5652 94.123 64.1471C94.123 63.7291 94.2158 63.311 94.3549 62.893C94.494 62.4749 94.7258 62.1498 95.004 61.8246C95.2822 61.5459 95.6531 61.2672 96.0704 61.0814C96.4877 60.8956 96.9514 60.8027 97.5077 60.8027C98.0641 60.8027 98.5278 60.8956 98.9451 61.0814C99.3624 61.2672 99.7333 61.4995 100.011 61.8246C100.29 62.1498 100.522 62.4749 100.661 62.893C100.8 63.311 100.892 63.7291 100.892 64.1471C100.892 64.5652 100.8 64.9832 100.661 65.4013C100.522 65.8193 100.29 66.1445 100.011 66.4696C99.7333 66.7948 99.3624 67.027 98.9451 67.1664C98.5278 67.3522 98.0641 67.4451 97.5077 67.4451ZM96.1168 64.1471C96.1168 64.6581 96.2559 65.0297 96.5341 65.3548C96.8123 65.68 97.1368 65.8193 97.5541 65.8193C97.7396 65.8193 97.925 65.7729 98.1105 65.68C98.296 65.5871 98.435 65.4942 98.5278 65.3548C98.6669 65.2155 98.7596 65.0297 98.806 64.8439C98.8987 64.6581 98.8987 64.4258 98.8987 64.1936C98.8987 63.6826 98.7596 63.311 98.4814 62.9859C98.2032 62.7072 97.8787 62.5214 97.4614 62.5214C97.2759 62.5214 97.0904 62.5678 96.905 62.6607C96.7195 62.7536 96.5804 62.8465 96.4413 62.9859C96.3022 63.1252 96.2095 63.311 96.1631 63.4968C96.1168 63.6826 96.1168 63.9149 96.1168 64.1471Z" fill="white"/>
    <path d="M104.693 65.6333H105.018C105.203 65.6333 105.342 65.5868 105.482 65.4939C105.621 65.401 105.713 65.2617 105.806 65.0759C105.899 64.8901 105.945 64.6114 106.038 64.2862C106.084 63.9611 106.131 63.543 106.223 63.0321L106.455 60.9883H111.185V65.6333H112.112V69.0241H110.396V67.3055H106.455V69.0241H104.786V65.6333H104.693ZM109.237 65.6333V62.614H108.124L108.032 63.3108C107.985 63.8217 107.893 64.2862 107.8 64.6578C107.707 65.0294 107.568 65.3546 107.383 65.6333H109.237Z" fill="white"/>
    <path d="M120.736 60.9883C120.968 60.9883 121.2 61.0347 121.386 61.1276C121.571 61.2205 121.756 61.3134 121.896 61.4992C122.035 61.6386 122.127 61.8244 122.22 62.0102C122.313 62.196 122.313 62.4282 122.313 62.614C122.313 62.8927 122.22 63.1714 122.081 63.4501C121.942 63.7288 121.71 63.9146 121.339 64.054C121.71 64.1469 122.035 64.3327 122.22 64.6114C122.452 64.8436 122.545 65.2152 122.545 65.6797C122.545 66.2836 122.313 66.7016 121.896 66.9803C121.478 67.259 120.876 67.3519 120.134 67.3519H116.656V60.9883H120.736ZM119.809 63.5895C119.995 63.5895 120.134 63.543 120.273 63.4501C120.365 63.3572 120.458 63.1714 120.458 62.9856C120.458 62.7998 120.412 62.6605 120.319 62.5676C120.226 62.4282 120.087 62.3818 119.902 62.3818H118.696V63.5895H119.809ZM120.041 65.912C120.226 65.912 120.365 65.8655 120.458 65.7262C120.597 65.5868 120.644 65.4475 120.644 65.2617C120.644 65.0759 120.597 64.8901 120.458 64.7972C120.365 64.6578 120.18 64.6114 119.995 64.6114H118.557V65.912H120.041Z" fill="white"/>
    <path d="M129.128 64.5649L131.909 60.9883H133.3V67.3519H131.353V63.8682L128.618 67.3519H127.227V60.9883H129.128V64.5649Z" fill="white"/>
    <path d="M139.885 60.9883L141.461 63.3108H141.878V60.9883H143.872V63.3108H144.289L145.866 60.9883H148.045L145.912 64.054L148.277 67.3519H146.005L144.429 64.983H143.965V67.3519H141.878V64.983H141.415L139.838 67.3519H137.566L139.885 64.054L137.752 60.9883H139.885Z" fill="white"/>
    <path d="M155.232 67.4455C154.722 67.4455 154.212 67.3526 153.795 67.1668C153.378 66.981 153.007 66.7487 152.729 66.47C152.45 66.1914 152.219 65.8197 152.079 65.4481C151.94 65.0765 151.848 64.6585 151.848 64.2405C151.848 63.776 151.94 63.3579 152.079 62.9399C152.219 62.5218 152.45 62.1967 152.729 61.8715C153.007 61.5464 153.378 61.3141 153.795 61.1283C154.212 60.9425 154.676 60.8496 155.232 60.8496C155.789 60.8496 156.252 60.9425 156.67 61.1283C157.087 61.3141 157.458 61.5464 157.736 61.8251C158.014 62.1038 158.246 62.4754 158.385 62.847C158.524 63.2186 158.617 63.6366 158.617 64.1011C158.617 64.194 158.617 64.3334 158.617 64.4263C158.617 64.5192 158.617 64.6121 158.571 64.705H153.888C153.934 65.123 154.073 65.4481 154.351 65.6804C154.63 65.9126 154.954 66.0056 155.279 66.0056C155.557 66.0056 155.835 65.9591 156.113 65.8197C156.391 65.6804 156.531 65.4946 156.623 65.2624L158.246 65.7268C158.014 66.2378 157.597 66.6558 157.087 66.9345C156.577 67.3061 155.974 67.4455 155.232 67.4455ZM156.577 63.5437C156.531 63.1257 156.391 62.8005 156.16 62.5683C155.928 62.336 155.603 62.1967 155.232 62.1967C154.861 62.1967 154.537 62.336 154.305 62.5683C154.073 62.8005 153.934 63.1257 153.888 63.4973H156.577V63.5437Z" fill="white"/>
    <path d="M165.061 63.2175H167.194V60.9414H169.095V67.305H167.194V64.8896H165.061V67.305H163.16V60.9414H165.061V63.2175Z" fill="white"/>
    <path d="M176.005 64.5649L178.786 60.9883H180.177V67.3519H178.23V63.8682L175.494 67.3519H174.104V60.9883H176.005V64.5649Z" fill="white"/>
    <path d="M188.15 67.4455C187.64 67.4455 187.13 67.3526 186.713 67.1668C186.296 66.981 185.925 66.7487 185.647 66.47C185.368 66.1914 185.137 65.8197 184.997 65.4481C184.858 65.0765 184.766 64.6585 184.766 64.2405C184.766 63.776 184.858 63.3579 184.997 62.9399C185.137 62.5218 185.368 62.1967 185.647 61.8715C185.925 61.5464 186.296 61.3141 186.713 61.1283C187.13 60.9425 187.594 60.8496 188.15 60.8496C188.707 60.8496 189.17 60.9425 189.588 61.1283C190.005 61.3141 190.376 61.5464 190.654 61.8251C190.932 62.1038 191.164 62.4754 191.303 62.847C191.442 63.2186 191.535 63.6366 191.535 64.1011C191.535 64.194 191.535 64.3334 191.535 64.4263C191.535 64.5192 191.535 64.6121 191.489 64.705H186.806C186.852 65.123 186.991 65.4481 187.269 65.6804C187.548 65.9126 187.872 66.0056 188.197 66.0056C188.475 66.0056 188.753 65.9591 189.031 65.8197C189.309 65.6804 189.449 65.4946 189.541 65.2624L191.164 65.7268C190.932 66.2378 190.515 66.6558 190.005 66.9345C189.495 67.3061 188.892 67.4455 188.15 67.4455ZM189.495 63.5437C189.449 63.1257 189.309 62.8005 189.078 62.5683C188.846 62.336 188.521 62.1967 188.15 62.1967C187.779 62.1967 187.455 62.336 187.223 62.5683C186.991 62.8005 186.852 63.1257 186.806 63.4973H189.495V63.5437Z" fill="white"/>
  </g>
  <defs>
    <clipPath id="clip0_1564_3872">
      <rect width="192" height="70" fill="white"/>
    </clipPath>
  </defs>
</svg>