<svg width="50" height="50" viewBox="0 0 50 50" fill="none" xmlns="http://www.w3.org/2000/svg">
<g id="line-chart-up-03">
<path id="Icon" d="M35.4167 18.75L24.0952 30.0715C23.6827 30.484 23.4764 30.6903 23.2386 30.7675C23.0293 30.8355 22.804 30.8355 22.5948 30.7675C22.3569 30.6903 22.1507 30.484 21.7382 30.0715L17.8452 26.1785C17.4327 25.766 17.2264 25.5597 16.9886 25.4825C16.7793 25.4145 16.554 25.4145 16.3448 25.4825C16.1069 25.5597 15.9007 25.766 15.4882 26.1785L6.25 35.4167M35.4167 18.75H27.0833M35.4167 18.75V27.0833M16.25 43.75H33.75C37.2503 43.75 39.0005 43.75 40.3374 43.0688C41.5135 42.4696 42.4696 41.5135 43.0688 40.3374C43.75 39.0005 43.75 37.2503 43.75 33.75V16.25C43.75 12.7497 43.75 10.9995 43.0688 9.66256C42.4696 8.48655 41.5135 7.53042 40.3374 6.93121C39.0005 6.25 37.2503 6.25 33.75 6.25H16.25C12.7497 6.25 10.9995 6.25 9.66256 6.93121C8.48655 7.53042 7.53042 8.48655 6.93121 9.66256C6.25 10.9995 6.25 12.7497 6.25 16.25V33.75C6.25 37.2503 6.25 39.0005 6.93121 40.3374C7.53042 41.5135 8.48655 42.4696 9.66256 43.0688C10.9995 43.75 12.7497 43.75 16.25 43.75Z" stroke="#FFA300" stroke-width="1.5" stroke-linecap="round" stroke-linejoin="round"/>
</g>
</svg>
