<svg width="50" height="50" viewBox="0 0 50 50" fill="none" xmlns="http://www.w3.org/2000/svg">
<g id="rocket-01">
<path id="Icon" d="M27.0823 22.9161L7.29068 42.7078M29.204 7.37125C31.7416 9.05501 34.1806 11.0401 36.4597 13.3192C38.7585 15.618 40.7582 18.0795 42.4512 20.6406M19.2802 16.4497L13.2909 14.4533C12.6011 14.2234 11.8414 14.3697 11.2863 14.8393L5.33393 19.876C4.11534 20.9071 4.46154 22.8694 5.95942 23.4213L11.5994 25.4992M24.3345 38.2339L26.4124 43.8739C26.9643 45.3717 28.9266 45.718 29.9577 44.4994L34.9943 38.5469C35.464 37.9919 35.6103 37.2322 35.3804 36.5424L33.3839 30.5531M40.3086 4.73012L30.0867 6.43376C28.983 6.61772 27.9706 7.16023 27.2062 7.97739L13.4289 22.7048C9.85777 26.5222 9.9571 32.4838 13.6535 36.1802C17.3498 39.8765 23.3114 39.9759 27.1289 36.4047L41.8563 22.6275C42.6734 21.8631 43.2159 20.8507 43.3999 19.7469L45.1035 9.52509C45.5735 6.705 43.1286 4.26011 40.3086 4.73012Z" stroke="#FFA300" stroke-width="1.5" stroke-linecap="round" stroke-linejoin="round"/>
</g>
</svg>
