<svg width="50" height="50" viewBox="0 0 50 50" fill="none" xmlns="http://www.w3.org/2000/svg">
<g id="bar-chart-square-up">
<path id="Icon" d="M24.9993 6.24935H33.7493C37.2497 6.24935 38.9998 6.24935 40.3368 6.93056C41.5128 7.52977 42.4689 8.4859 43.0681 9.66191C43.7493 10.9989 43.7493 12.749 43.7493 16.2493V33.7493C43.7493 37.2497 43.7493 38.9998 43.0681 40.3368C42.4689 41.5128 41.5128 42.4689 40.3368 43.0681C38.9998 43.7493 37.2497 43.7493 33.7493 43.7493H16.2493C12.749 43.7493 10.9989 43.7493 9.66191 43.0681C8.4859 42.4689 7.52977 41.5128 6.93056 40.3368C6.24935 38.9998 6.24935 37.2497 6.24935 33.7493V24.9993M16.666 27.0827V35.416M33.3327 22.916V35.416M24.9993 14.5827V35.416M4.16602 10.416L10.416 4.16602M10.416 4.16602L16.666 10.416M10.416 4.16602L10.416 16.666" stroke="#FFA300" stroke-width="1.5" stroke-linecap="round" stroke-linejoin="round"/>
</g>
</svg>
